# File produced by Open Asset Import Library (http://www.assimp.sf.net)
# (assimp v3.1.187496374)

mtllib object_star_anim.obj.mtl

# 60 vertex positions
v  -0.253826 0.254435 -0.192969
v  -0.821326 0.171768 -0.192969
v  -0.288151 0.295287 -0.149905
v  -0.932381 0.201443 -0.149905
v  -0.304016 0.316277 -0.102957
v  -0.983704 0.217268 -0.102957
v  -0.304016 0.316277 0.102957
v  -0.983704 0.217268 0.102957
v  -0.491683 -0.261996 -0.102957
v  -0.927151 0.199977 0.152724
v  -0.491683 -0.261996 0.102957
v  -0.286535 0.293295 0.152724
v  -0.821326 0.171768 0.192969
v  -0.253826 0.254435 0.192969
v  -0.463413 -0.251736 0.152724
v  -0.572624 -0.889836 0.152724
v  -0.607554 -0.939014 0.102957
v  -0.410516 -0.22839 0.192969
v  -0.507262 -0.79366 0.192969
v  0.000295652 -0.619174 0.102957
v  -0.607554 -0.939014 -0.102957
v  0.000283941 -0.588382 0.152724
v  0.573404 -0.889431 0.152724
v  0.000257269 -0.526613 0.192969
v  0.507965 -0.793302 0.192969
v  0.608371 -0.938584 0.102957
v  0.492022 -0.261649 0.102957
v  0.608371 -0.938584 -0.102957
v  0.463743 -0.251409 0.152724
v  0.927162 0.200632 0.152724
v  0.41082 -0.2281 0.192969
v  0.821347 0.172348 0.192969
v  0.983704 0.217962 0.102957
v  0.303947 0.316492 0.102957
v  0.983704 0.217962 -0.102957
v  0.28648 0.293498 0.152724
v  -0.000232441 0.873923 0.152724
v  0.253788 0.254614 0.192969
v  -0.000200183 0.768793 0.192969
v  -0.000252218 0.932318 0.102957
v  0.303947 0.316492 -0.102957
v  -0.000252218 0.932318 -0.102957
v  -0.000234117 0.87919 -0.149905
v  0.288095 0.29549 -0.149905
v  -0.000200183 0.768793 -0.192969
v  0.253788 0.254614 -0.192969
v  0.821347 0.172348 -0.192969
v  0.932391 0.202101 -0.149905
v  0.492022 -0.261649 -0.102957
v  0.466359 -0.252489 -0.149905
v  0.576638 -0.89411 -0.149905
v  0.41082 -0.2281 -0.192969
v  0.507965 -0.793302 -0.192969
v  0.000295652 -0.619174 -0.102957
v  0.000285177 -0.591363 -0.149905
v  -0.575854 -0.894517 -0.149905
v  0.000257269 -0.526613 -0.192969
v  -0.507262 -0.79366 -0.192969
v  -0.466028 -0.252819 -0.149905
v  -0.410516 -0.22839 -0.192969

# 76 UV coordinates
vt 0.922437 0.405673 0
vt 0.885242 0.405673 0
vt 0.922437 0.347019 0
vt 0.885242 0.347019 0
vt 0.922437 0.293943 0
vt 0.885242 0.293943 0
vt 0.922437 0.184442 0
vt 0.885242 0.184442 0
vt 0.848048 0.293943 0
vt 0.885242 0.127867 0
vt 0.848048 0.184442 0
vt 0.922437 0.127867 0
vt 0.885242 0.0727117 0
vt 0.922437 0.0727117 0
vt 0.848048 0.127867 0
vt 0.810854 0.127867 0
vt 0.810854 0.184442 0
vt 0.848048 0.0727117 0
vt 0.810854 0.0727117 0
vt 0.77366 0.184442 0
vt 0.810854 0.293943 0
vt 0.77366 0.127867 0
vt 0.736466 0.127867 0
vt 0.77366 0.0727117 0
vt 0.736466 0.0727117 0
vt 0.736466 0.184442 0
vt 0.699272 0.184442 0
vt 0.736466 0.293943 0
vt 0.699272 0.127867 0
vt 0.662077 0.127867 0
vt 0.699272 0.0727117 0
vt 0.662077 0.0727117 0
vt 0.662077 0.184442 0
vt 0.624883 0.184442 0
vt 0.662077 0.293943 0
vt 0.624883 0.127867 0
vt 0.587689 0.127867 0
vt 0.624883 0.0727117 0
vt 0.587689 0.0727117 0
vt 0.587689 0.184442 0
vt 0.550495 0.184442 0
vt 0.624883 0.293943 0
vt 0.587689 0.293943 0
vt 0.550495 0.293943 0
vt 0.550495 0.127867 0
vt 0.550495 0.0727117 0
vt 0.550495 0.347019 0
vt 0.587689 0.347019 0
vt 0.624883 0.347019 0
vt 0.587689 0.405673 0
vt 0.624883 0.405673 0
vt 0.662077 0.405673 0
vt 0.662077 0.347019 0
vt 0.699272 0.293943 0
vt 0.699272 0.347019 0
vt 0.736466 0.347019 0
vt 0.699272 0.405673 0
vt 0.736466 0.405673 0
vt 0.77366 0.293943 0
vt 0.77366 0.347019 0
vt 0.810854 0.347019 0
vt 0.77366 0.405673 0
vt 0.810854 0.405673 0
vt 0.848048 0.347019 0
vt 0.848048 0.405673 0
vt 0.550495 0.405673 0
vt 0.412497 0.777118 0
vt 0.470244 0.590491 0
vt 0.621211 0.745312 0
vt 0.225828 0.777048 0
vt 0.319096 0.97591 0
vt 0.168206 0.590379 0
vt 0.319264 0.47508 0
vt 0.505968 0.371973 0
vt 0.132629 0.371834 0
vt 0.0171355 0.745088 0

# 60 vertex normals
vn -0.0287067 0.0376564 -0.998878
vn -0.1444 0.0521094 -0.988146
vn -0.428077 0.596268 -0.679128
vn -0.551704 0.166694 -0.817212
vn -0.584068 0.804111 -0.110765
vn -0.944587 0.304726 -0.122059
vn -0.583355 0.80333 0.119823
vn -0.943609 0.303931 0.131253
vn -0.944881 -0.306578 -0.114931
vn -0.547356 0.167367 0.819993
vn -0.943774 -0.306022 0.125061
vn -0.428049 0.59539 0.679915
vn -0.137468 0.0496879 0.989259
vn -0.0268668 0.0352047 0.999019
vn -0.664602 -0.210474 0.716942
vn -0.325445 -0.457908 0.827288
vn -0.581213 -0.802859 0.1327
vn -0.0375091 -0.0136872 0.999203
vn -0.0862038 -0.113952 0.989739
vn 0.000349418 -0.991731 0.128333
vn -0.582157 -0.803684 -0.123226
vn 0.000234228 -0.67486 0.737945
vn 0.325773 -0.457664 0.827294
vn 1.63589e-05 -0.0428037 0.999084
vn 0.0862776 -0.113893 0.98974
vn 0.581782 -0.802446 0.132702
vn 0.943989 -0.305356 0.125068
vn 0.582726 -0.803272 -0.123226
vn 0.664703 -0.209993 0.716989
vn 0.547223 0.167745 0.820005
vn 0.0347801 -0.0126627 0.999315
vn 0.137429 0.0497855 0.98926
vn 0.943394 0.304597 0.131256
vn 0.582787 0.803742 0.119828
vn 0.944371 0.305392 -0.122061
vn 0.427604 0.595673 0.679947
vn -0.00019668 0.580334 0.814379
vn 0.0229034 0.0300521 0.999286
vn -5.66387e-05 0.148022 0.988984
vn -0.0003487 0.991477 0.130282
vn 0.5835 0.804524 -0.110769
vn -0.000349386 0.992617 -0.121287
vn -0.000195938 0.584137 -0.811655
vn 0.427631 0.596551 -0.679161
vn -5.93204e-05 0.155503 -0.987835
vn 0.0264167 0.0346999 -0.999048
vn 0.144358 0.052212 -0.988147
vn 0.551573 0.167074 -0.817223
vn 0.945097 -0.305911 -0.114937
vn 0.665805 -0.209571 -0.716089
vn 0.32736 -0.461869 -0.824326
vn 0.0435414 -0.0158169 -0.998926
vn 0.0905375 -0.119587 -0.988687
vn 0.000350013 -0.993069 -0.11753
vn 0.000233819 -0.67588 -0.737011
vn -0.327025 -0.462114 -0.824321
vn 1.49132e-05 -0.0391114 -0.999235
vn -0.0904598 -0.11965 -0.988686
vn -0.665705 -0.210053 -0.716041
vn -0.0371966 -0.0135426 -0.999216

# Mesh 'object_star' with 116 faces
g object_star
usemtl blinn1
f  1/1/1 2/2/2 3/3/3
f  3/3/3 2/2/2 4/4/4
f  3/3/3 4/4/4 5/5/5
f  5/5/5 4/4/4 6/6/6
f  7/7/7 5/5/5 8/8/8
f  8/8/8 5/5/5 6/6/6
f  6/6/6 9/9/9 8/8/8
f  4/4/4 9/9/9 6/6/6
f  10/10/10 7/7/7 8/8/8
f  11/11/11 10/10/10 8/8/8
f  8/8/8 9/9/9 11/11/11
f  12/12/12 7/7/7 10/10/10
f  13/13/13 12/12/12 10/10/10
f  14/14/14 12/12/12 13/13/13
f  15/15/15 11/11/11 16/16/16
f  16/16/16 11/11/11 17/17/17
f  15/15/15 10/10/10 11/11/11
f  9/9/9 17/17/17 11/11/11
f  15/15/15 13/13/13 10/10/10
f  18/18/18 15/15/15 19/19/19
f  19/19/19 15/15/15 16/16/16
f  18/18/18 13/13/13 15/15/15
f  20/20/20 16/16/16 17/17/17
f  17/17/17 21/21/21 20/20/20
f  21/21/21 17/17/17 9/9/9
f  22/22/22 16/16/16 20/20/20
f  22/22/22 19/19/19 16/16/16
f  22/22/22 20/20/20 23/23/23
f  24/24/24 22/22/22 25/25/25
f  25/25/25 22/22/22 23/23/23
f  24/24/24 19/19/19 22/22/22
f  23/23/23 20/20/20 26/26/26
f  27/27/27 23/23/23 26/26/26
f  26/26/26 28/28/28 27/27/27
f  20/20/20 28/28/28 26/26/26
f  29/29/29 23/23/23 27/27/27
f  29/29/29 25/25/25 23/23/23
f  29/29/29 27/27/27 30/30/30
f  31/31/31 29/29/29 32/32/32
f  32/32/32 29/29/29 30/30/30
f  31/31/31 25/25/25 29/29/29
f  30/30/30 27/27/27 33/33/33
f  34/34/34 30/30/30 33/33/33
f  35/35/35 34/34/34 33/33/33
f  27/27/27 35/35/35 33/33/33
f  36/36/36 30/30/30 34/34/34
f  36/36/36 32/32/32 30/30/30
f  36/36/36 34/34/34 37/37/37
f  38/38/38 36/36/36 39/39/39
f  39/39/39 36/36/36 37/37/37
f  38/38/38 32/32/32 36/36/36
f  37/37/37 34/34/34 40/40/40
f  7/41/7 37/37/37 40/40/40
f  34/34/34 41/42/41 40/40/40
f  40/40/40 41/42/41 42/43/42
f  42/43/42 5/44/5 40/40/40
f  40/40/40 5/44/5 7/41/7
f  12/45/12 37/37/37 7/41/7
f  12/45/12 39/39/39 37/37/37
f  14/46/14 39/39/39 12/45/12
f  3/47/3 5/44/5 43/48/43
f  43/48/43 5/44/5 42/43/42
f  41/42/41 43/48/43 42/43/42
f  44/49/44 45/50/45 43/48/43
f  44/49/44 43/48/43 41/42/41
f  46/51/46 45/50/45 44/49/44
f  46/51/46 44/49/44 47/52/47
f  47/52/47 44/49/44 48/53/48
f  44/49/44 41/42/41 48/53/48
f  48/53/48 41/42/41 35/35/35
f  41/42/41 34/34/34 35/35/35
f  49/54/49 35/35/35 27/27/27
f  49/54/49 48/53/48 35/35/35
f  27/27/27 28/28/28 49/54/49
f  50/55/50 48/53/48 49/54/49
f  28/28/28 51/56/51 49/54/49
f  49/54/49 51/56/51 50/55/50
f  50/55/50 47/52/47 48/53/48
f  52/57/52 47/52/47 50/55/50
f  51/56/51 53/58/53 50/55/50
f  50/55/50 53/58/53 52/57/52
f  54/59/54 28/28/28 20/20/20
f  54/59/54 51/56/51 28/28/28
f  20/20/20 21/21/21 54/59/54
f  55/60/55 51/56/51 54/59/54
f  21/21/21 56/61/56 54/59/54
f  54/59/54 56/61/56 55/60/55
f  55/60/55 53/58/53 51/56/51
f  57/62/57 53/58/53 55/60/55
f  56/61/56 58/63/58 55/60/55
f  55/60/55 58/63/58 57/62/57
f  9/9/9 56/61/56 21/21/21
f  59/64/59 56/61/56 9/9/9
f  59/64/59 9/9/9 4/4/4
f  59/64/59 58/63/58 56/61/56
f  60/65/60 58/63/58 59/64/59
f  60/65/60 59/64/59 2/2/2
f  2/2/2 59/64/59 4/4/4
f  45/50/45 3/47/3 43/48/43
f  1/66/1 3/47/3 45/50/45
f  38/67/38 31/68/31 32/69/32
f  14/70/14 38/67/38 39/71/39
f  38/67/38 18/72/18 31/68/31
f  14/70/14 18/72/18 38/67/38
f  31/68/31 24/73/24 25/74/25
f  31/68/31 18/72/18 24/73/24
f  24/73/24 18/72/18 19/75/19
f  14/70/14 13/76/13 18/72/18
f  2/76/2 1/70/1 60/72/60
f  46/67/46 1/70/1 45/71/45
f  60/72/60 1/70/1 46/67/46
f  60/72/60 57/73/57 58/75/58
f  60/72/60 46/67/46 57/73/57
f  52/68/52 46/67/46 47/69/47
f  57/73/57 46/67/46 52/68/52
f  57/73/57 52/68/52 53/74/53

